<?xml version="1.0" standalone="no"?>
<!DOCTYPE svg PUBLIC "-//W3C//DTD SVG 20010904//EN"
 "http://www.w3.org/TR/2001/REC-SVG-20010904/DTD/svg10.dtd">
<svg version="1.0" xmlns="http://www.w3.org/2000/svg"
 width="109.000000pt" height="109.000000pt" viewBox="0 0 109.000000 109.000000"
 preserveAspectRatio="xMidYMid meet">
<metadata>
Created by potrace 1.11, written by Peter Selinger 2001-2013
</metadata>
<g transform="translate(0.000000,109.000000) scale(0.100000,-0.100000)"
fill="#000000" stroke="none">
<path d="M558 928 c9 -189 9 -553 -1 -755 -4 -90 -4 -163 0 -163 14 0 222 345
253 419 56 136 61 240 18 381 -43 139 -134 240 -230 254 l-48 7 8 -143z"/>
<path d="M422 1049 c-44 -13 -112 -85 -146 -155 -54 -110 -72 -286 -40 -395 9
-30 36 -92 61 -139 55 -106 213 -350 226 -350 5 0 7 19 3 43 -16 113 -27 452
-24 715 l3 292 -25 -1 c-14 0 -40 -5 -58 -10z"/>
<path d="M860 943 c0 -5 9 -35 20 -67 33 -97 45 -202 31 -290 -20 -138 -61
-216 -238 -453 -45 -62 -83 -114 -83 -118 0 -3 9 -5 19 -5 38 0 279 314 359
468 72 138 66 238 -23 372 -44 67 -85 111 -85 93z"/>
<path d="M165 888 c-45 -52 -82 -127 -97 -201 -14 -67 -2 -133 42 -226 77
-162 370 -514 370 -443 0 4 -43 65 -94 137 -162 221 -211 323 -223 460 -6 74
9 188 34 263 8 24 12 46 10 48 -3 3 -21 -14 -42 -38z"/>
</g>
</svg>
